<svg width="318" height="353" viewBox="0 0 318 353" fill="none" xmlns="http://www.w3.org/2000/svg">
<path d="M184.959 171.78C164.405 146.222 185.695 147.421 188.714 127.457C207.067 145.586 193.622 168.285 184.959 171.78ZM184.959 171.78C159.992 169.856 135.57 140.047 189.903 87.3671C203.99 142.076 235.215 152.75 181.881 180.288C157.366 195.601 120.521 273.048 187.198 275.026C217.912 275.937 249.187 238.31 189.547 195.822C170.978 201.7 156.119 253.79 193.607 253.79C231.095 253.79 368.872 192.204 291.076 67.4209C276.664 47.2491 233.808 7.11972 177.683 7.97659" stroke="white" stroke-width="6" stroke-linecap="square"/>
<mask id="path-2-inside-1_585_1520" fill="white">
<path fill-rule="evenodd" clip-rule="evenodd" d="M215.027 10.1295C207.094 9.14744 198.972 8.81708 190.718 9.19164C111.547 12.7845 50.2784 79.8782 53.8713 159.05C57.4641 238.221 124.558 299.489 203.729 295.897C238.972 294.297 270.668 280.114 294.674 257.885C267.849 290.365 227.919 311.816 182.522 313.876C97.2822 317.745 25.0455 251.78 21.1772 166.539C17.3089 81.2991 83.274 9.06239 168.514 5.19413C184.606 4.46387 200.235 6.22238 215.027 10.1295Z"/>
</mask>
<path d="M215.027 10.1295L214.29 16.0841L216.559 4.32845L215.027 10.1295ZM294.674 257.885L299.3 261.705L290.597 253.482L294.674 257.885ZM190.99 15.1855C198.906 14.8263 206.69 15.1432 214.29 16.0841L215.764 4.17496C207.498 3.15164 199.038 2.8079 190.446 3.1978L190.99 15.1855ZM59.8651 158.778C56.4225 82.9165 115.129 18.6281 190.99 15.1855L190.446 3.1978C107.965 6.94088 44.1344 76.8399 47.8774 159.322L59.8651 158.778ZM203.457 289.903C127.596 293.345 63.3077 234.639 59.8651 158.778L47.8774 159.322C51.6205 241.803 121.52 305.633 204.001 301.89L203.457 289.903ZM290.597 253.482C267.593 274.785 237.232 288.37 203.457 289.903L204.001 301.89C240.713 300.224 273.744 285.444 298.751 262.287L290.597 253.482ZM290.048 254.064C264.256 285.292 225.884 305.902 182.25 307.883L182.794 319.87C229.954 317.73 271.441 295.437 299.3 261.705L290.048 254.064ZM182.25 307.883C100.321 311.601 30.8891 248.197 27.171 166.267L15.1834 166.811C19.2019 255.362 94.2439 323.889 182.794 319.87L182.25 307.883ZM27.171 166.267C23.453 84.3374 86.8563 14.906 168.786 11.188L168.242 -0.799705C79.6917 3.21879 11.1649 78.2608 15.1834 166.811L27.171 166.267ZM168.786 11.188C184.263 10.4856 199.284 12.177 213.495 15.9306L216.559 4.32845C201.185 0.267763 184.949 -1.55786 168.242 -0.799705L168.786 11.188Z" fill="white" mask="url(#path-2-inside-1_585_1520)"/>
<path d="M110.854 260.009L110.861 260.015L110.869 260.021C161.055 297.315 236.346 305.437 282.879 267.038C236.498 306.227 163.193 309.537 108.883 265.942C68.1973 233.283 48.4628 181.514 52.7926 135.729C48.9702 180.158 70.2685 227.43 110.854 260.009Z" fill="white" stroke="white"/>
<path d="M128.469 14.0227C127.83 14.2128 127.139 14.3783 126.426 14.5491C126.367 14.5631 126.308 14.5772 126.249 14.5914C124.981 14.8954 123.651 15.224 122.575 15.7573C70.0863 33.2026 29.4551 83.2548 23.4421 145.736C16.1907 221.084 65.0829 284.928 127.762 304.975C127.791 304.988 127.821 305.002 127.851 305.016C127.839 305.012 127.827 305.009 127.815 305.006L127.636 304.961C61.6654 288.158 9.08747 219.689 15.3533 145.144L15.355 145.123L15.355 145.102C15.355 109.71 31.6932 79.0511 52.9394 56.3544C74.1946 33.6481 100.308 18.9685 119.761 15.4922C120.942 15.2811 121.819 15.0808 122.555 14.9129C122.603 14.902 122.65 14.8911 122.697 14.8805C123.463 14.7057 124.066 14.573 124.73 14.4967C125.31 14.4301 125.814 14.332 126.264 14.2415C126.301 14.2341 126.337 14.2267 126.373 14.2195C126.782 14.1369 127.135 14.0656 127.481 14.0256C127.81 13.9875 128.131 13.978 128.469 14.0227Z" fill="white" stroke="white"/>
</svg>
